<?xml version="1.0" encoding="UTF-8" standalone="no"?>
<!DOCTYPE svg PUBLIC "-//W3C//DTD SVG 1.1//EN"
 "http://www.w3.org/Graphics/SVG/1.1/DTD/svg11.dtd">
<!-- Generated by graphviz version 2.43.0 (0)
 -->
<!-- Title: %3 Pages: 1 -->
<svg width="710pt" height="2043pt"
 viewBox="0.00 0.00 710.00 2043.00" xmlns="http://www.w3.org/2000/svg" xmlns:xlink="http://www.w3.org/1999/xlink">
<g id="graph0" class="graph" transform="scale(1 1) rotate(0) translate(144 1899)">
<title>%3</title>
<polygon fill="white" stroke="transparent" points="-144,144 -144,-1899 566,-1899 566,144 -144,144"/>
<g id="clust1" class="cluster">
<title>cluster_</title>
<path fill="#e5f5fd" stroke="#aeb6be" d="M20,-8C20,-8 402,-8 402,-8 408,-8 414,-14 414,-20 414,-20 414,-1735 414,-1735 414,-1741 408,-1747 402,-1747 402,-1747 20,-1747 20,-1747 14,-1747 8,-1741 8,-1735 8,-1735 8,-20 8,-20 8,-14 14,-8 20,-8"/>
</g>
<!-- 07a35c228b79445fb5d059ffd2fdb1c6 -->
<g id="node1" class="node">
<title>07a35c228b79445fb5d059ffd2fdb1c6</title>
<image xlink:href="../assets/icons/interpreter.png" width="101px" height="101px" preserveAspectRatio="xMinYMin meet" x="304.5" y="-1721"/>
<text text-anchor="middle" x="355" y="-1605.6" font-family="Sans-Serif" font-size="13.00" fill="#2d3436">Interpreter</text>
</g>
<!-- bb3f1b2e410248e690ba3e30c02c81cd -->
<g id="node2" class="node">
<title>bb3f1b2e410248e690ba3e30c02c81cd</title>
<image xlink:href="../assets/icons/waiting.png" width="101px" height="101px" preserveAspectRatio="xMinYMin meet" x="304.5" y="-1530"/>
<text text-anchor="middle" x="355" y="-1414.6" font-family="Sans-Serif" font-size="13.00" fill="#2d3436">Waiting</text>
</g>
<!-- 07a35c228b79445fb5d059ffd2fdb1c6&#45;&gt;bb3f1b2e410248e690ba3e30c02c81cd -->
<g id="edge1" class="edge">
<title>07a35c228b79445fb5d059ffd2fdb1c6&#45;&gt;bb3f1b2e410248e690ba3e30c02c81cd</title>
<path fill="none" stroke="#7b8894" d="M355,-1601.81C355,-1601.81 355,-1558.22 355,-1558.22"/>
<polygon fill="#7b8894" stroke="#7b8894" points="358.5,-1558.22 355,-1548.22 351.5,-1558.22 358.5,-1558.22"/>
</g>
<!-- 67e13e9801324b68915dbb2b6968d405 -->
<g id="node3" class="node">
<title>67e13e9801324b68915dbb2b6968d405</title>
<image xlink:href="../assets/icons/teams.png" width="101px" height="101px" preserveAspectRatio="xMinYMin meet" x="304.5" y="-1324.5"/>
<text text-anchor="middle" x="355" y="-1208.6" font-family="Sans-Serif" font-size="13.00" fill="#2d3436">Microsoft Teams&#13;</text>
<text text-anchor="middle" x="355" y="-1194.6" font-family="Sans-Serif" font-size="13.00" fill="#2d3436">Link</text>
</g>
<!-- bb3f1b2e410248e690ba3e30c02c81cd&#45;&gt;67e13e9801324b68915dbb2b6968d405 -->
<g id="edge2" class="edge">
<title>bb3f1b2e410248e690ba3e30c02c81cd&#45;&gt;67e13e9801324b68915dbb2b6968d405</title>
<path fill="none" stroke="#7b8894" d="M355,-1410.79C355,-1410.79 355,-1367.28 355,-1367.28"/>
<polygon fill="#7b8894" stroke="#7b8894" points="358.5,-1367.28 355,-1357.28 351.5,-1367.28 358.5,-1367.28"/>
</g>
<!-- 57c68b5cea584aa9a4eb42af250b16c4 -->
<g id="node4" class="node">
<title>57c68b5cea584aa9a4eb42af250b16c4</title>
<image xlink:href="../assets/icons/join.png" width="101px" height="101px" preserveAspectRatio="xMinYMin meet" x="304.5" y="-1119"/>
<text text-anchor="middle" x="355" y="-1003.6" font-family="Sans-Serif" font-size="13.00" fill="#2d3436">Join Call</text>
</g>
<!-- 67e13e9801324b68915dbb2b6968d405&#45;&gt;57c68b5cea584aa9a4eb42af250b16c4 -->
<g id="edge3" class="edge">
<title>67e13e9801324b68915dbb2b6968d405&#45;&gt;57c68b5cea584aa9a4eb42af250b16c4</title>
<path fill="none" stroke="#7b8894" d="M355,-1190.71C355,-1190.71 355,-1147.12 355,-1147.12"/>
<polygon fill="#7b8894" stroke="#7b8894" points="358.5,-1147.12 355,-1137.12 351.5,-1147.12 358.5,-1147.12"/>
</g>
<!-- 14c014c714c64179bad8c232c6ecebce -->
<g id="node5" class="node">
<title>14c014c714c64179bad8c232c6ecebce</title>
<image xlink:href="../assets/icons/conference.png" width="101px" height="101px" preserveAspectRatio="xMinYMin meet" x="304.5" y="-928"/>
<text text-anchor="middle" x="355" y="-812.6" font-family="Sans-Serif" font-size="13.00" fill="#2d3436">Conference</text>
</g>
<!-- 57c68b5cea584aa9a4eb42af250b16c4&#45;&gt;14c014c714c64179bad8c232c6ecebce -->
<g id="edge4" class="edge">
<title>57c68b5cea584aa9a4eb42af250b16c4&#45;&gt;14c014c714c64179bad8c232c6ecebce</title>
<path fill="none" stroke="#7b8894" d="M355,-999.81C355,-999.81 355,-956.22 355,-956.22"/>
<polygon fill="#7b8894" stroke="#7b8894" points="358.5,-956.22 355,-946.22 351.5,-956.22 358.5,-956.22"/>
</g>
<!-- dd29e6948c6a48a7900705e2fba0a06d -->
<g id="node6" class="node">
<title>dd29e6948c6a48a7900705e2fba0a06d</title>
<image xlink:href="../assets/icons/patient.png" width="101px" height="101px" preserveAspectRatio="xMinYMin meet" x="160.5" y="-1721"/>
<text text-anchor="middle" x="211" y="-1605.6" font-family="Sans-Serif" font-size="13.00" fill="#2d3436">Patient</text>
</g>
<!-- 0cd108dc368b4f66bfb40739c185a925 -->
<g id="node7" class="node">
<title>0cd108dc368b4f66bfb40739c185a925</title>
<image xlink:href="../assets/icons/teams.png" width="101px" height="101px" preserveAspectRatio="xMinYMin meet" x="160.5" y="-1530"/>
<text text-anchor="middle" x="211" y="-1414.6" font-family="Sans-Serif" font-size="13.00" fill="#2d3436">Microsoft Teams</text>
</g>
<!-- dd29e6948c6a48a7900705e2fba0a06d&#45;&gt;0cd108dc368b4f66bfb40739c185a925 -->
<g id="edge5" class="edge">
<title>dd29e6948c6a48a7900705e2fba0a06d&#45;&gt;0cd108dc368b4f66bfb40739c185a925</title>
<path fill="none" stroke="#7b8894" d="M211,-1601.81C211,-1601.81 211,-1558.22 211,-1558.22"/>
<polygon fill="#7b8894" stroke="#7b8894" points="214.5,-1558.22 211,-1548.22 207.5,-1558.22 214.5,-1558.22"/>
</g>
<!-- 965c479eaee64fc7bd91189aaf469a42 -->
<g id="node8" class="node">
<title>965c479eaee64fc7bd91189aaf469a42</title>
<image xlink:href="../assets/icons/join.png" width="101px" height="101px" preserveAspectRatio="xMinYMin meet" x="160.5" y="-1324.5"/>
<text text-anchor="middle" x="211" y="-1209.1" font-family="Sans-Serif" font-size="13.00" fill="#2d3436">Join Call</text>
</g>
<!-- 0cd108dc368b4f66bfb40739c185a925&#45;&gt;965c479eaee64fc7bd91189aaf469a42 -->
<g id="edge6" class="edge">
<title>0cd108dc368b4f66bfb40739c185a925&#45;&gt;965c479eaee64fc7bd91189aaf469a42</title>
<path fill="none" stroke="#7b8894" d="M211,-1410.79C211,-1410.79 211,-1352.65 211,-1352.65"/>
<polygon fill="#7b8894" stroke="#7b8894" points="214.5,-1352.65 211,-1342.65 207.5,-1352.65 214.5,-1352.65"/>
</g>
<!-- fba7658cb40542faa69448e2a6fd4859 -->
<g id="node9" class="node">
<title>fba7658cb40542faa69448e2a6fd4859</title>
<image xlink:href="../assets/icons/interpreter.png" width="101px" height="101px" preserveAspectRatio="xMinYMin meet" x="160.5" y="-1119"/>
<text text-anchor="middle" x="211" y="-1003.6" font-family="Sans-Serif" font-size="13.00" fill="#2d3436">Interpreter Joins</text>
</g>
<!-- 965c479eaee64fc7bd91189aaf469a42&#45;&gt;fba7658cb40542faa69448e2a6fd4859 -->
<g id="edge7" class="edge">
<title>965c479eaee64fc7bd91189aaf469a42&#45;&gt;fba7658cb40542faa69448e2a6fd4859</title>
<path fill="none" stroke="#7b8894" d="M211,-1205.29C211,-1205.29 211,-1147.15 211,-1147.15"/>
<polygon fill="#7b8894" stroke="#7b8894" points="214.5,-1147.15 211,-1137.15 207.5,-1147.15 214.5,-1147.15"/>
</g>
<!-- 25caf8664f74444da5b64dd2e7e52e22 -->
<g id="node10" class="node">
<title>25caf8664f74444da5b64dd2e7e52e22</title>
<image xlink:href="../assets/icons/conference.png" width="101px" height="101px" preserveAspectRatio="xMinYMin meet" x="160.5" y="-928"/>
<text text-anchor="middle" x="211" y="-812.6" font-family="Sans-Serif" font-size="13.00" fill="#2d3436">Conference</text>
</g>
<!-- fba7658cb40542faa69448e2a6fd4859&#45;&gt;25caf8664f74444da5b64dd2e7e52e22 -->
<g id="edge8" class="edge">
<title>fba7658cb40542faa69448e2a6fd4859&#45;&gt;25caf8664f74444da5b64dd2e7e52e22</title>
<path fill="none" stroke="#7b8894" d="M211,-999.81C211,-999.81 211,-956.22 211,-956.22"/>
<polygon fill="#7b8894" stroke="#7b8894" points="214.5,-956.22 211,-946.22 207.5,-956.22 214.5,-956.22"/>
</g>
<!-- 01607bca68ee4690ba2cd1e881a8f79d -->
<g id="node11" class="node">
<title>01607bca68ee4690ba2cd1e881a8f79d</title>
<image xlink:href="../assets/icons/doctor.png" width="101px" height="101px" preserveAspectRatio="xMinYMin meet" x="16.5" y="-1721"/>
<text text-anchor="middle" x="67" y="-1605.6" font-family="Sans-Serif" font-size="13.00" fill="#2d3436">Doctor</text>
</g>
<!-- fd20a91e61234a0ca93c2174ad88e517 -->
<g id="node12" class="node">
<title>fd20a91e61234a0ca93c2174ad88e517</title>
<image xlink:href="../assets/icons/teams.png" width="101px" height="101px" preserveAspectRatio="xMinYMin meet" x="16.5" y="-1530"/>
<text text-anchor="middle" x="67" y="-1414.6" font-family="Sans-Serif" font-size="13.00" fill="#2d3436">Microsoft Teams</text>
</g>
<!-- 01607bca68ee4690ba2cd1e881a8f79d&#45;&gt;fd20a91e61234a0ca93c2174ad88e517 -->
<g id="edge9" class="edge">
<title>01607bca68ee4690ba2cd1e881a8f79d&#45;&gt;fd20a91e61234a0ca93c2174ad88e517</title>
<path fill="none" stroke="#7b8894" d="M67,-1601.81C67,-1601.81 67,-1558.22 67,-1558.22"/>
<polygon fill="#7b8894" stroke="#7b8894" points="70.5,-1558.22 67,-1548.22 63.5,-1558.22 70.5,-1558.22"/>
</g>
<!-- 1aff1f155f49451f91624775d4772dca -->
<g id="node13" class="node">
<title>1aff1f155f49451f91624775d4772dca</title>
<image xlink:href="../assets/icons/teams_extension.png" width="101px" height="101px" preserveAspectRatio="xMinYMin meet" x="16.5" y="-1324.5"/>
<text text-anchor="middle" x="67" y="-1208.6" font-family="Sans-Serif" font-size="13.00" fill="#2d3436">In&#45;Meeting&#13;</text>
<text text-anchor="middle" x="67" y="-1194.6" font-family="Sans-Serif" font-size="13.00" fill="#2d3436">Extension</text>
</g>
<!-- fd20a91e61234a0ca93c2174ad88e517&#45;&gt;1aff1f155f49451f91624775d4772dca -->
<g id="edge10" class="edge">
<title>fd20a91e61234a0ca93c2174ad88e517&#45;&gt;1aff1f155f49451f91624775d4772dca</title>
<path fill="none" stroke="#7b8894" d="M67,-1410.79C67,-1410.79 67,-1367.28 67,-1367.28"/>
<polygon fill="#7b8894" stroke="#7b8894" points="70.5,-1367.28 67,-1357.28 63.5,-1367.28 70.5,-1367.28"/>
</g>
<!-- a5ecbacb4144454d99bf1aab84e76e48 -->
<g id="node14" class="node">
<title>a5ecbacb4144454d99bf1aab84e76e48</title>
<image xlink:href="../assets/icons/authentication.png" width="101px" height="101px" preserveAspectRatio="xMinYMin meet" x="16.5" y="-1119"/>
<text text-anchor="middle" x="67" y="-1003.6" font-family="Sans-Serif" font-size="13.00" fill="#2d3436">Auth</text>
</g>
<!-- 1aff1f155f49451f91624775d4772dca&#45;&gt;a5ecbacb4144454d99bf1aab84e76e48 -->
<g id="edge11" class="edge">
<title>1aff1f155f49451f91624775d4772dca&#45;&gt;a5ecbacb4144454d99bf1aab84e76e48</title>
<path fill="none" stroke="#7b8894" d="M67,-1190.71C67,-1190.71 67,-1147.12 67,-1147.12"/>
<polygon fill="#7b8894" stroke="#7b8894" points="70.5,-1147.12 67,-1137.12 63.5,-1147.12 70.5,-1147.12"/>
</g>
<!-- 55c7ec99bbe74e6ab579f51b702a4ea3 -->
<g id="node15" class="node">
<title>55c7ec99bbe74e6ab579f51b702a4ea3</title>
<image xlink:href="../assets/icons/patient.png" width="101px" height="101px" preserveAspectRatio="xMinYMin meet" x="16.5" y="-928"/>
<text text-anchor="middle" x="67" y="-812.6" font-family="Sans-Serif" font-size="13.00" fill="#2d3436">Patient Joins</text>
</g>
<!-- a5ecbacb4144454d99bf1aab84e76e48&#45;&gt;55c7ec99bbe74e6ab579f51b702a4ea3 -->
<g id="edge12" class="edge">
<title>a5ecbacb4144454d99bf1aab84e76e48&#45;&gt;55c7ec99bbe74e6ab579f51b702a4ea3</title>
<path fill="none" stroke="#7b8894" d="M67,-999.81C67,-999.81 67,-956.22 67,-956.22"/>
<polygon fill="#7b8894" stroke="#7b8894" points="70.5,-956.22 67,-946.22 63.5,-956.22 70.5,-956.22"/>
</g>
<!-- 9b5dae4346a649ca9b4d37af9ee8effe -->
<g id="node16" class="node">
<title>9b5dae4346a649ca9b4d37af9ee8effe</title>
<image xlink:href="../assets/icons/request.png" width="101px" height="101px" preserveAspectRatio="xMinYMin meet" x="16.5" y="-722.5"/>
<text text-anchor="middle" x="67" y="-606.6" font-family="Sans-Serif" font-size="13.00" fill="#2d3436">Interpreter&#13;</text>
<text text-anchor="middle" x="67" y="-592.6" font-family="Sans-Serif" font-size="13.00" fill="#2d3436">Request</text>
</g>
<!-- 55c7ec99bbe74e6ab579f51b702a4ea3&#45;&gt;9b5dae4346a649ca9b4d37af9ee8effe -->
<g id="edge13" class="edge">
<title>55c7ec99bbe74e6ab579f51b702a4ea3&#45;&gt;9b5dae4346a649ca9b4d37af9ee8effe</title>
<path fill="none" stroke="#7b8894" d="M67,-808.79C67,-808.79 67,-765.28 67,-765.28"/>
<polygon fill="#7b8894" stroke="#7b8894" points="70.5,-765.28 67,-755.28 63.5,-765.28 70.5,-765.28"/>
</g>
<!-- 603a71554e6247eb8d6ce9967347df48 -->
<g id="node17" class="node">
<title>603a71554e6247eb8d6ce9967347df48</title>
<image xlink:href="../assets/icons/golang.png" width="101px" height="101px" preserveAspectRatio="xMinYMin meet" x="16.5" y="-517"/>
<text text-anchor="middle" x="67" y="-401.6" font-family="Sans-Serif" font-size="13.00" fill="#2d3436">CyraCom API</text>
</g>
<!-- 9b5dae4346a649ca9b4d37af9ee8effe&#45;&gt;603a71554e6247eb8d6ce9967347df48 -->
<g id="edge14" class="edge">
<title>9b5dae4346a649ca9b4d37af9ee8effe&#45;&gt;603a71554e6247eb8d6ce9967347df48</title>
<path fill="none" stroke="#7b8894" d="M67,-588.71C67,-588.71 67,-545.12 67,-545.12"/>
<polygon fill="#7b8894" stroke="#7b8894" points="70.5,-545.12 67,-535.12 63.5,-545.12 70.5,-545.12"/>
</g>
<!-- 0329bac99e104ff5a8d5e7bc1992dfe2 -->
<g id="node18" class="node">
<title>0329bac99e104ff5a8d5e7bc1992dfe2</title>
<image xlink:href="../assets/icons/interpreter.png" width="101px" height="101px" preserveAspectRatio="xMinYMin meet" x="16.5" y="-326"/>
<text text-anchor="middle" x="67" y="-210.6" font-family="Sans-Serif" font-size="13.00" fill="#2d3436">Interpreter Joins</text>
</g>
<!-- 603a71554e6247eb8d6ce9967347df48&#45;&gt;0329bac99e104ff5a8d5e7bc1992dfe2 -->
<g id="edge15" class="edge">
<title>603a71554e6247eb8d6ce9967347df48&#45;&gt;0329bac99e104ff5a8d5e7bc1992dfe2</title>
<path fill="none" stroke="#7b8894" d="M67,-397.81C67,-397.81 67,-354.22 67,-354.22"/>
<polygon fill="#7b8894" stroke="#7b8894" points="70.5,-354.22 67,-344.22 63.5,-354.22 70.5,-354.22"/>
</g>
<!-- 88fb1693561c4bc58b726455778cb639 -->
<g id="node19" class="node">
<title>88fb1693561c4bc58b726455778cb639</title>
<image xlink:href="../assets/icons/conference.png" width="101px" height="101px" preserveAspectRatio="xMinYMin meet" x="16.5" y="-135"/>
<text text-anchor="middle" x="67" y="-19.6" font-family="Sans-Serif" font-size="13.00" fill="#2d3436">Conference</text>
</g>
<!-- 0329bac99e104ff5a8d5e7bc1992dfe2&#45;&gt;88fb1693561c4bc58b726455778cb639 -->
<g id="edge16" class="edge">
<title>0329bac99e104ff5a8d5e7bc1992dfe2&#45;&gt;88fb1693561c4bc58b726455778cb639</title>
<path fill="none" stroke="#7b8894" d="M67,-206.81C67,-206.81 67,-163.22 67,-163.22"/>
<polygon fill="#7b8894" stroke="#7b8894" points="70.5,-163.22 67,-153.22 63.5,-163.22 70.5,-163.22"/>
</g>
</g>
</svg>
