<?xml version="1.0" encoding="UTF-8" standalone="no"?>
<!DOCTYPE svg PUBLIC "-//W3C//DTD SVG 1.1//EN"
 "http://www.w3.org/Graphics/SVG/1.1/DTD/svg11.dtd">
<!-- Generated by graphviz version 2.43.0 (0)
 -->
<!-- Title: %3 Pages: 1 -->
<svg width="710pt" height="1852pt"
 viewBox="0.00 0.00 710.00 1852.00" xmlns="http://www.w3.org/2000/svg" xmlns:xlink="http://www.w3.org/1999/xlink">
<g id="graph0" class="graph" transform="scale(1 1) rotate(0) translate(144 1708)">
<title>%3</title>
<polygon fill="white" stroke="transparent" points="-144,144 -144,-1708 566,-1708 566,144 -144,144"/>
<g id="clust1" class="cluster">
<title>cluster_</title>
<path fill="#e5f5fd" stroke="#aeb6be" d="M20,-8C20,-8 402,-8 402,-8 408,-8 414,-14 414,-20 414,-20 414,-1544 414,-1544 414,-1550 408,-1556 402,-1556 402,-1556 20,-1556 20,-1556 14,-1556 8,-1550 8,-1544 8,-1544 8,-20 8,-20 8,-14 14,-8 20,-8"/>
</g>
<!-- d4ef1e7af9064a5da64afc40db71abc7 -->
<g id="node1" class="node">
<title>d4ef1e7af9064a5da64afc40db71abc7</title>
<image xlink:href="../assets/icons/interpreter.png" width="101px" height="101px" preserveAspectRatio="xMinYMin meet" x="304.5" y="-1530"/>
<text text-anchor="middle" x="355" y="-1414.6" font-family="Sans-Serif" font-size="13.00" fill="#2d3436">Interpreter</text>
</g>
<!-- 6e3922dacedf4b81a6647e59c7b275b8 -->
<g id="node2" class="node">
<title>6e3922dacedf4b81a6647e59c7b275b8</title>
<image xlink:href="../assets/icons/waiting.png" width="101px" height="101px" preserveAspectRatio="xMinYMin meet" x="304.5" y="-1339"/>
<text text-anchor="middle" x="355" y="-1223.6" font-family="Sans-Serif" font-size="13.00" fill="#2d3436">Waiting</text>
</g>
<!-- d4ef1e7af9064a5da64afc40db71abc7&#45;&gt;6e3922dacedf4b81a6647e59c7b275b8 -->
<g id="edge1" class="edge">
<title>d4ef1e7af9064a5da64afc40db71abc7&#45;&gt;6e3922dacedf4b81a6647e59c7b275b8</title>
<path fill="none" stroke="#7b8894" d="M355,-1410.81C355,-1410.81 355,-1367.22 355,-1367.22"/>
<polygon fill="#7b8894" stroke="#7b8894" points="358.5,-1367.22 355,-1357.22 351.5,-1367.22 358.5,-1367.22"/>
</g>
<!-- ccceb7609511419a9f9bce3634366b6e -->
<g id="node3" class="node">
<title>ccceb7609511419a9f9bce3634366b6e</title>
<image xlink:href="../assets/icons/teams.png" width="101px" height="101px" preserveAspectRatio="xMinYMin meet" x="304.5" y="-1133.5"/>
<text text-anchor="middle" x="355" y="-1017.6" font-family="Sans-Serif" font-size="13.00" fill="#2d3436">Microsoft Teams&#13;</text>
<text text-anchor="middle" x="355" y="-1003.6" font-family="Sans-Serif" font-size="13.00" fill="#2d3436">Link</text>
</g>
<!-- 6e3922dacedf4b81a6647e59c7b275b8&#45;&gt;ccceb7609511419a9f9bce3634366b6e -->
<g id="edge2" class="edge">
<title>6e3922dacedf4b81a6647e59c7b275b8&#45;&gt;ccceb7609511419a9f9bce3634366b6e</title>
<path fill="none" stroke="#7b8894" d="M355,-1219.79C355,-1219.79 355,-1176.28 355,-1176.28"/>
<polygon fill="#7b8894" stroke="#7b8894" points="358.5,-1176.28 355,-1166.28 351.5,-1176.28 358.5,-1176.28"/>
</g>
<!-- 27a9c88c27d64af5ada9f4e9f1b550f5 -->
<g id="node4" class="node">
<title>27a9c88c27d64af5ada9f4e9f1b550f5</title>
<image xlink:href="../assets/icons/join.png" width="101px" height="101px" preserveAspectRatio="xMinYMin meet" x="304.5" y="-928"/>
<text text-anchor="middle" x="355" y="-812.6" font-family="Sans-Serif" font-size="13.00" fill="#2d3436">Join Call</text>
</g>
<!-- ccceb7609511419a9f9bce3634366b6e&#45;&gt;27a9c88c27d64af5ada9f4e9f1b550f5 -->
<g id="edge3" class="edge">
<title>ccceb7609511419a9f9bce3634366b6e&#45;&gt;27a9c88c27d64af5ada9f4e9f1b550f5</title>
<path fill="none" stroke="#7b8894" d="M355,-999.71C355,-999.71 355,-956.12 355,-956.12"/>
<polygon fill="#7b8894" stroke="#7b8894" points="358.5,-956.12 355,-946.12 351.5,-956.12 358.5,-956.12"/>
</g>
<!-- 3f05bbf27334443992369f965099ee5a -->
<g id="node5" class="node">
<title>3f05bbf27334443992369f965099ee5a</title>
<image xlink:href="../assets/icons/conference.png" width="101px" height="101px" preserveAspectRatio="xMinYMin meet" x="304.5" y="-722.5"/>
<text text-anchor="middle" x="355" y="-607.1" font-family="Sans-Serif" font-size="13.00" fill="#2d3436">Conference</text>
</g>
<!-- 27a9c88c27d64af5ada9f4e9f1b550f5&#45;&gt;3f05bbf27334443992369f965099ee5a -->
<g id="edge4" class="edge">
<title>27a9c88c27d64af5ada9f4e9f1b550f5&#45;&gt;3f05bbf27334443992369f965099ee5a</title>
<path fill="none" stroke="#7b8894" d="M355,-808.79C355,-808.79 355,-750.65 355,-750.65"/>
<polygon fill="#7b8894" stroke="#7b8894" points="358.5,-750.65 355,-740.65 351.5,-750.65 358.5,-750.65"/>
</g>
<!-- cc38a48ae08b424882774fba96e37dc9 -->
<g id="node6" class="node">
<title>cc38a48ae08b424882774fba96e37dc9</title>
<image xlink:href="../assets/icons/patient.png" width="101px" height="101px" preserveAspectRatio="xMinYMin meet" x="160.5" y="-1530"/>
<text text-anchor="middle" x="211" y="-1414.6" font-family="Sans-Serif" font-size="13.00" fill="#2d3436">Patient</text>
</g>
<!-- 4eaffe5968944762953686fcd6e02686 -->
<g id="node7" class="node">
<title>4eaffe5968944762953686fcd6e02686</title>
<image xlink:href="../assets/icons/teams.png" width="101px" height="101px" preserveAspectRatio="xMinYMin meet" x="160.5" y="-1339"/>
<text text-anchor="middle" x="211" y="-1223.6" font-family="Sans-Serif" font-size="13.00" fill="#2d3436">Microsoft Teams</text>
</g>
<!-- cc38a48ae08b424882774fba96e37dc9&#45;&gt;4eaffe5968944762953686fcd6e02686 -->
<g id="edge5" class="edge">
<title>cc38a48ae08b424882774fba96e37dc9&#45;&gt;4eaffe5968944762953686fcd6e02686</title>
<path fill="none" stroke="#7b8894" d="M211,-1410.81C211,-1410.81 211,-1367.22 211,-1367.22"/>
<polygon fill="#7b8894" stroke="#7b8894" points="214.5,-1367.22 211,-1357.22 207.5,-1367.22 214.5,-1367.22"/>
</g>
<!-- cb5c0d15613247f98151c40541585f4e -->
<g id="node8" class="node">
<title>cb5c0d15613247f98151c40541585f4e</title>
<image xlink:href="../assets/icons/join.png" width="101px" height="101px" preserveAspectRatio="xMinYMin meet" x="160.5" y="-1133.5"/>
<text text-anchor="middle" x="211" y="-1018.1" font-family="Sans-Serif" font-size="13.00" fill="#2d3436">Join Call</text>
</g>
<!-- 4eaffe5968944762953686fcd6e02686&#45;&gt;cb5c0d15613247f98151c40541585f4e -->
<g id="edge6" class="edge">
<title>4eaffe5968944762953686fcd6e02686&#45;&gt;cb5c0d15613247f98151c40541585f4e</title>
<path fill="none" stroke="#7b8894" d="M211,-1219.79C211,-1219.79 211,-1161.65 211,-1161.65"/>
<polygon fill="#7b8894" stroke="#7b8894" points="214.5,-1161.65 211,-1151.65 207.5,-1161.65 214.5,-1161.65"/>
</g>
<!-- d66e778b49074b3fbb06e1df6feef1f6 -->
<g id="node9" class="node">
<title>d66e778b49074b3fbb06e1df6feef1f6</title>
<image xlink:href="../assets/icons/interpreter.png" width="101px" height="101px" preserveAspectRatio="xMinYMin meet" x="160.5" y="-928"/>
<text text-anchor="middle" x="211" y="-812.6" font-family="Sans-Serif" font-size="13.00" fill="#2d3436">Interpreter Joins</text>
</g>
<!-- cb5c0d15613247f98151c40541585f4e&#45;&gt;d66e778b49074b3fbb06e1df6feef1f6 -->
<g id="edge7" class="edge">
<title>cb5c0d15613247f98151c40541585f4e&#45;&gt;d66e778b49074b3fbb06e1df6feef1f6</title>
<path fill="none" stroke="#7b8894" d="M211,-1014.29C211,-1014.29 211,-956.15 211,-956.15"/>
<polygon fill="#7b8894" stroke="#7b8894" points="214.5,-956.15 211,-946.15 207.5,-956.15 214.5,-956.15"/>
</g>
<!-- 8bcac9b2b4de4e86aa3eef71d1db621d -->
<g id="node10" class="node">
<title>8bcac9b2b4de4e86aa3eef71d1db621d</title>
<image xlink:href="../assets/icons/conference.png" width="101px" height="101px" preserveAspectRatio="xMinYMin meet" x="160.5" y="-722.5"/>
<text text-anchor="middle" x="211" y="-607.1" font-family="Sans-Serif" font-size="13.00" fill="#2d3436">Conference</text>
</g>
<!-- d66e778b49074b3fbb06e1df6feef1f6&#45;&gt;8bcac9b2b4de4e86aa3eef71d1db621d -->
<g id="edge8" class="edge">
<title>d66e778b49074b3fbb06e1df6feef1f6&#45;&gt;8bcac9b2b4de4e86aa3eef71d1db621d</title>
<path fill="none" stroke="#7b8894" d="M211,-808.79C211,-808.79 211,-750.65 211,-750.65"/>
<polygon fill="#7b8894" stroke="#7b8894" points="214.5,-750.65 211,-740.65 207.5,-750.65 214.5,-750.65"/>
</g>
<!-- de844c1587404a09b78ecf2b0aae893c -->
<g id="node11" class="node">
<title>de844c1587404a09b78ecf2b0aae893c</title>
<image xlink:href="../assets/icons/doctor.png" width="101px" height="101px" preserveAspectRatio="xMinYMin meet" x="16.5" y="-1530"/>
<text text-anchor="middle" x="67" y="-1414.6" font-family="Sans-Serif" font-size="13.00" fill="#2d3436">Doctor</text>
</g>
<!-- c4ca5056787248eb810c30aeda9e62ec -->
<g id="node12" class="node">
<title>c4ca5056787248eb810c30aeda9e62ec</title>
<image xlink:href="../assets/icons/teams.png" width="101px" height="101px" preserveAspectRatio="xMinYMin meet" x="16.5" y="-1339"/>
<text text-anchor="middle" x="67" y="-1223.6" font-family="Sans-Serif" font-size="13.00" fill="#2d3436">Microsoft Teams</text>
</g>
<!-- de844c1587404a09b78ecf2b0aae893c&#45;&gt;c4ca5056787248eb810c30aeda9e62ec -->
<g id="edge9" class="edge">
<title>de844c1587404a09b78ecf2b0aae893c&#45;&gt;c4ca5056787248eb810c30aeda9e62ec</title>
<path fill="none" stroke="#7b8894" d="M67,-1410.81C67,-1410.81 67,-1367.22 67,-1367.22"/>
<polygon fill="#7b8894" stroke="#7b8894" points="70.5,-1367.22 67,-1357.22 63.5,-1367.22 70.5,-1367.22"/>
</g>
<!-- 674e4a90ab7242209a840cfe1dbb7aa1 -->
<g id="node13" class="node">
<title>674e4a90ab7242209a840cfe1dbb7aa1</title>
<image xlink:href="../assets/icons/teams_extension.png" width="101px" height="101px" preserveAspectRatio="xMinYMin meet" x="16.5" y="-1133.5"/>
<text text-anchor="middle" x="67" y="-1017.6" font-family="Sans-Serif" font-size="13.00" fill="#2d3436">In&#45;Meeting&#13;</text>
<text text-anchor="middle" x="67" y="-1003.6" font-family="Sans-Serif" font-size="13.00" fill="#2d3436">Extension</text>
</g>
<!-- c4ca5056787248eb810c30aeda9e62ec&#45;&gt;674e4a90ab7242209a840cfe1dbb7aa1 -->
<g id="edge10" class="edge">
<title>c4ca5056787248eb810c30aeda9e62ec&#45;&gt;674e4a90ab7242209a840cfe1dbb7aa1</title>
<path fill="none" stroke="#7b8894" d="M67,-1219.79C67,-1219.79 67,-1176.28 67,-1176.28"/>
<polygon fill="#7b8894" stroke="#7b8894" points="70.5,-1176.28 67,-1166.28 63.5,-1176.28 70.5,-1176.28"/>
</g>
<!-- d4d7d78f05ad451a9d0e1dfd4b0cfda6 -->
<g id="node14" class="node">
<title>d4d7d78f05ad451a9d0e1dfd4b0cfda6</title>
<image xlink:href="../assets/icons/authentication.png" width="101px" height="101px" preserveAspectRatio="xMinYMin meet" x="16.5" y="-928"/>
<text text-anchor="middle" x="67" y="-812.6" font-family="Sans-Serif" font-size="13.00" fill="#2d3436">Auth</text>
</g>
<!-- 674e4a90ab7242209a840cfe1dbb7aa1&#45;&gt;d4d7d78f05ad451a9d0e1dfd4b0cfda6 -->
<g id="edge11" class="edge">
<title>674e4a90ab7242209a840cfe1dbb7aa1&#45;&gt;d4d7d78f05ad451a9d0e1dfd4b0cfda6</title>
<path fill="none" stroke="#7b8894" d="M67,-999.71C67,-999.71 67,-956.12 67,-956.12"/>
<polygon fill="#7b8894" stroke="#7b8894" points="70.5,-956.12 67,-946.12 63.5,-956.12 70.5,-956.12"/>
</g>
<!-- af028aa0711d48f4a53f4470e9a87621 -->
<g id="node15" class="node">
<title>af028aa0711d48f4a53f4470e9a87621</title>
<image xlink:href="../assets/icons/request.png" width="101px" height="101px" preserveAspectRatio="xMinYMin meet" x="16.5" y="-722.5"/>
<text text-anchor="middle" x="67" y="-606.6" font-family="Sans-Serif" font-size="13.00" fill="#2d3436">Interpreter&#13;</text>
<text text-anchor="middle" x="67" y="-592.6" font-family="Sans-Serif" font-size="13.00" fill="#2d3436">Request</text>
</g>
<!-- d4d7d78f05ad451a9d0e1dfd4b0cfda6&#45;&gt;af028aa0711d48f4a53f4470e9a87621 -->
<g id="edge12" class="edge">
<title>d4d7d78f05ad451a9d0e1dfd4b0cfda6&#45;&gt;af028aa0711d48f4a53f4470e9a87621</title>
<path fill="none" stroke="#7b8894" d="M67,-808.79C67,-808.79 67,-765.28 67,-765.28"/>
<polygon fill="#7b8894" stroke="#7b8894" points="70.5,-765.28 67,-755.28 63.5,-765.28 70.5,-765.28"/>
</g>
<!-- 2b95414ba3d64a8abb656288d6c3d0c9 -->
<g id="node16" class="node">
<title>2b95414ba3d64a8abb656288d6c3d0c9</title>
<image xlink:href="../assets/icons/golang.png" width="101px" height="101px" preserveAspectRatio="xMinYMin meet" x="16.5" y="-517"/>
<text text-anchor="middle" x="67" y="-401.6" font-family="Sans-Serif" font-size="13.00" fill="#2d3436">CyraCom API</text>
</g>
<!-- af028aa0711d48f4a53f4470e9a87621&#45;&gt;2b95414ba3d64a8abb656288d6c3d0c9 -->
<g id="edge13" class="edge">
<title>af028aa0711d48f4a53f4470e9a87621&#45;&gt;2b95414ba3d64a8abb656288d6c3d0c9</title>
<path fill="none" stroke="#7b8894" d="M67,-588.71C67,-588.71 67,-545.12 67,-545.12"/>
<polygon fill="#7b8894" stroke="#7b8894" points="70.5,-545.12 67,-535.12 63.5,-545.12 70.5,-545.12"/>
</g>
<!-- 2638707195144cb8a33e4070f513ef2b -->
<g id="node17" class="node">
<title>2638707195144cb8a33e4070f513ef2b</title>
<image xlink:href="../assets/icons/interpreter.png" width="101px" height="101px" preserveAspectRatio="xMinYMin meet" x="16.5" y="-326"/>
<text text-anchor="middle" x="67" y="-210.6" font-family="Sans-Serif" font-size="13.00" fill="#2d3436">Interpreter Joins</text>
</g>
<!-- 2b95414ba3d64a8abb656288d6c3d0c9&#45;&gt;2638707195144cb8a33e4070f513ef2b -->
<g id="edge14" class="edge">
<title>2b95414ba3d64a8abb656288d6c3d0c9&#45;&gt;2638707195144cb8a33e4070f513ef2b</title>
<path fill="none" stroke="#7b8894" d="M67,-397.81C67,-397.81 67,-354.22 67,-354.22"/>
<polygon fill="#7b8894" stroke="#7b8894" points="70.5,-354.22 67,-344.22 63.5,-354.22 70.5,-354.22"/>
</g>
<!-- 203328c2bab246209fb9c9f7182400b7 -->
<g id="node18" class="node">
<title>203328c2bab246209fb9c9f7182400b7</title>
<image xlink:href="../assets/icons/conference.png" width="101px" height="101px" preserveAspectRatio="xMinYMin meet" x="16.5" y="-135"/>
<text text-anchor="middle" x="67" y="-19.6" font-family="Sans-Serif" font-size="13.00" fill="#2d3436">Conference</text>
</g>
<!-- 2638707195144cb8a33e4070f513ef2b&#45;&gt;203328c2bab246209fb9c9f7182400b7 -->
<g id="edge15" class="edge">
<title>2638707195144cb8a33e4070f513ef2b&#45;&gt;203328c2bab246209fb9c9f7182400b7</title>
<path fill="none" stroke="#7b8894" d="M67,-206.81C67,-206.81 67,-163.22 67,-163.22"/>
<polygon fill="#7b8894" stroke="#7b8894" points="70.5,-163.22 67,-153.22 63.5,-163.22 70.5,-163.22"/>
</g>
</g>
</svg>
