<?xml version="1.0" encoding="UTF-8" standalone="no"?>
<!DOCTYPE svg PUBLIC "-//W3C//DTD SVG 1.1//EN"
 "http://www.w3.org/Graphics/SVG/1.1/DTD/svg11.dtd">
<!-- Generated by graphviz version 2.43.0 (0)
 -->
<!-- Title: %3 Pages: 1 -->
<svg width="710pt" height="1985pt"
 viewBox="0.00 0.00 710.00 1985.00" xmlns="http://www.w3.org/2000/svg" xmlns:xlink="http://www.w3.org/1999/xlink">
<g id="graph0" class="graph" transform="scale(1 1) rotate(0) translate(144 1841)">
<title>%3</title>
<polygon fill="white" stroke="transparent" points="-144,144 -144,-1841 566,-1841 566,144 -144,144"/>
<g id="clust1" class="cluster">
<title>cluster_</title>
<path fill="#e5f5fd" stroke="#aeb6be" d="M20,-8C20,-8 402,-8 402,-8 408,-8 414,-14 414,-20 414,-20 414,-1677 414,-1677 414,-1683 408,-1689 402,-1689 402,-1689 20,-1689 20,-1689 14,-1689 8,-1683 8,-1677 8,-1677 8,-20 8,-20 8,-14 14,-8 20,-8"/>
</g>
<!-- 46b18b76845b4b5fad55c452fd6edbe0 -->
<g id="node1" class="node">
<title>46b18b76845b4b5fad55c452fd6edbe0</title>
<image xlink:href="../assets/icons/interpreter.png" width="101px" height="101px" preserveAspectRatio="xMinYMin meet" x="304.5" y="-1663"/>
<text text-anchor="middle" x="355" y="-1547.6" font-family="Sans-Serif" font-size="13.00" fill="#2d3436">Interpreter</text>
</g>
<!-- b99a2035b0a4454489563db0ba5a5376 -->
<g id="node2" class="node">
<title>b99a2035b0a4454489563db0ba5a5376</title>
<image xlink:href="../assets/icons/teams.png" width="101px" height="101px" preserveAspectRatio="xMinYMin meet" x="304.5" y="-1472"/>
<text text-anchor="middle" x="355" y="-1356.6" font-family="Sans-Serif" font-size="13.00" fill="#2d3436">Microsoft Teams</text>
</g>
<!-- 46b18b76845b4b5fad55c452fd6edbe0&#45;&gt;b99a2035b0a4454489563db0ba5a5376 -->
<g id="edge1" class="edge">
<title>46b18b76845b4b5fad55c452fd6edbe0&#45;&gt;b99a2035b0a4454489563db0ba5a5376</title>
<path fill="none" stroke="#7b8894" d="M355,-1543.81C355,-1543.81 355,-1500.22 355,-1500.22"/>
<polygon fill="#7b8894" stroke="#7b8894" points="358.5,-1500.22 355,-1490.22 351.5,-1500.22 358.5,-1500.22"/>
</g>
<!-- a80fa6c7503545daae546c7b2d010e7e -->
<g id="node3" class="node">
<title>a80fa6c7503545daae546c7b2d010e7e</title>
<image xlink:href="../assets/icons/teams_extension.png" width="101px" height="101px" preserveAspectRatio="xMinYMin meet" x="304.5" y="-1281"/>
<text text-anchor="middle" x="355" y="-1165.6" font-family="Sans-Serif" font-size="13.00" fill="#2d3436">Tab Extension</text>
</g>
<!-- b99a2035b0a4454489563db0ba5a5376&#45;&gt;a80fa6c7503545daae546c7b2d010e7e -->
<g id="edge2" class="edge">
<title>b99a2035b0a4454489563db0ba5a5376&#45;&gt;a80fa6c7503545daae546c7b2d010e7e</title>
<path fill="none" stroke="#7b8894" d="M355,-1352.81C355,-1352.81 355,-1309.22 355,-1309.22"/>
<polygon fill="#7b8894" stroke="#7b8894" points="358.5,-1309.22 355,-1299.22 351.5,-1309.22 358.5,-1309.22"/>
</g>
<!-- 2d8bcfc5ce54468191421b5b9a7ba5cd -->
<g id="node4" class="node">
<title>2d8bcfc5ce54468191421b5b9a7ba5cd</title>
<image xlink:href="../assets/icons/authentication.png" width="101px" height="101px" preserveAspectRatio="xMinYMin meet" x="304.5" y="-1090"/>
<text text-anchor="middle" x="355" y="-974.6" font-family="Sans-Serif" font-size="13.00" fill="#2d3436">Auth</text>
</g>
<!-- a80fa6c7503545daae546c7b2d010e7e&#45;&gt;2d8bcfc5ce54468191421b5b9a7ba5cd -->
<g id="edge3" class="edge">
<title>a80fa6c7503545daae546c7b2d010e7e&#45;&gt;2d8bcfc5ce54468191421b5b9a7ba5cd</title>
<path fill="none" stroke="#7b8894" d="M355,-1161.81C355,-1161.81 355,-1118.22 355,-1118.22"/>
<polygon fill="#7b8894" stroke="#7b8894" points="358.5,-1118.22 355,-1108.22 351.5,-1118.22 358.5,-1118.22"/>
</g>
<!-- 063e608055164eadb7efff2291de4147 -->
<g id="node5" class="node">
<title>063e608055164eadb7efff2291de4147</title>
<image xlink:href="../assets/icons/waiting.png" width="101px" height="101px" preserveAspectRatio="xMinYMin meet" x="304.5" y="-899"/>
<text text-anchor="middle" x="355" y="-783.6" font-family="Sans-Serif" font-size="13.00" fill="#2d3436">Waiting</text>
</g>
<!-- 2d8bcfc5ce54468191421b5b9a7ba5cd&#45;&gt;063e608055164eadb7efff2291de4147 -->
<g id="edge4" class="edge">
<title>2d8bcfc5ce54468191421b5b9a7ba5cd&#45;&gt;063e608055164eadb7efff2291de4147</title>
<path fill="none" stroke="#7b8894" d="M355,-970.81C355,-970.81 355,-927.22 355,-927.22"/>
<polygon fill="#7b8894" stroke="#7b8894" points="358.5,-927.22 355,-917.22 351.5,-927.22 358.5,-927.22"/>
</g>
<!-- 73a8dbbf5305495face2d8bac75d99fb -->
<g id="node6" class="node">
<title>73a8dbbf5305495face2d8bac75d99fb</title>
<image xlink:href="../assets/icons/join.png" width="101px" height="101px" preserveAspectRatio="xMinYMin meet" x="304.5" y="-708"/>
<text text-anchor="middle" x="355" y="-592.6" font-family="Sans-Serif" font-size="13.00" fill="#2d3436">Join Call</text>
</g>
<!-- 063e608055164eadb7efff2291de4147&#45;&gt;73a8dbbf5305495face2d8bac75d99fb -->
<g id="edge5" class="edge">
<title>063e608055164eadb7efff2291de4147&#45;&gt;73a8dbbf5305495face2d8bac75d99fb</title>
<path fill="none" stroke="#7b8894" d="M355,-779.81C355,-779.81 355,-736.22 355,-736.22"/>
<polygon fill="#7b8894" stroke="#7b8894" points="358.5,-736.22 355,-726.22 351.5,-736.22 358.5,-736.22"/>
</g>
<!-- 7887d6200ccd47f9bcc6eba5d916e9b4 -->
<g id="node7" class="node">
<title>7887d6200ccd47f9bcc6eba5d916e9b4</title>
<image xlink:href="../assets/icons/conference.png" width="101px" height="101px" preserveAspectRatio="xMinYMin meet" x="304.5" y="-517"/>
<text text-anchor="middle" x="355" y="-401.6" font-family="Sans-Serif" font-size="13.00" fill="#2d3436">Conference</text>
</g>
<!-- 73a8dbbf5305495face2d8bac75d99fb&#45;&gt;7887d6200ccd47f9bcc6eba5d916e9b4 -->
<g id="edge6" class="edge">
<title>73a8dbbf5305495face2d8bac75d99fb&#45;&gt;7887d6200ccd47f9bcc6eba5d916e9b4</title>
<path fill="none" stroke="#7b8894" d="M355,-588.81C355,-588.81 355,-545.22 355,-545.22"/>
<polygon fill="#7b8894" stroke="#7b8894" points="358.5,-545.22 355,-535.22 351.5,-545.22 358.5,-545.22"/>
</g>
<!-- 97dcf182a0a14e9a9c049e4b21ac39f6 -->
<g id="node8" class="node">
<title>97dcf182a0a14e9a9c049e4b21ac39f6</title>
<image xlink:href="../assets/icons/patient.png" width="101px" height="101px" preserveAspectRatio="xMinYMin meet" x="160.5" y="-1663"/>
<text text-anchor="middle" x="211" y="-1547.6" font-family="Sans-Serif" font-size="13.00" fill="#2d3436">Patient</text>
</g>
<!-- 35da7e25ded744e1a29cc266bb181f38 -->
<g id="node9" class="node">
<title>35da7e25ded744e1a29cc266bb181f38</title>
<image xlink:href="../assets/icons/teams.png" width="101px" height="101px" preserveAspectRatio="xMinYMin meet" x="160.5" y="-1472"/>
<text text-anchor="middle" x="211" y="-1356.6" font-family="Sans-Serif" font-size="13.00" fill="#2d3436">Microsoft Teams</text>
</g>
<!-- 97dcf182a0a14e9a9c049e4b21ac39f6&#45;&gt;35da7e25ded744e1a29cc266bb181f38 -->
<g id="edge7" class="edge">
<title>97dcf182a0a14e9a9c049e4b21ac39f6&#45;&gt;35da7e25ded744e1a29cc266bb181f38</title>
<path fill="none" stroke="#7b8894" d="M211,-1543.81C211,-1543.81 211,-1500.22 211,-1500.22"/>
<polygon fill="#7b8894" stroke="#7b8894" points="214.5,-1500.22 211,-1490.22 207.5,-1500.22 214.5,-1500.22"/>
</g>
<!-- 4b57134b2c3444709bfe1316e2ba944e -->
<g id="node10" class="node">
<title>4b57134b2c3444709bfe1316e2ba944e</title>
<image xlink:href="../assets/icons/teams_extension.png" width="101px" height="101px" preserveAspectRatio="xMinYMin meet" x="160.5" y="-1281"/>
<text text-anchor="middle" x="211" y="-1165.6" font-family="Sans-Serif" font-size="13.00" fill="#2d3436">Tab Extension</text>
</g>
<!-- 35da7e25ded744e1a29cc266bb181f38&#45;&gt;4b57134b2c3444709bfe1316e2ba944e -->
<g id="edge8" class="edge">
<title>35da7e25ded744e1a29cc266bb181f38&#45;&gt;4b57134b2c3444709bfe1316e2ba944e</title>
<path fill="none" stroke="#7b8894" d="M211,-1352.81C211,-1352.81 211,-1309.22 211,-1309.22"/>
<polygon fill="#7b8894" stroke="#7b8894" points="214.5,-1309.22 211,-1299.22 207.5,-1309.22 214.5,-1309.22"/>
</g>
<!-- 80397fab38aa43f491513687d8981e1d -->
<g id="node11" class="node">
<title>80397fab38aa43f491513687d8981e1d</title>
<image xlink:href="../assets/icons/authentication.png" width="101px" height="101px" preserveAspectRatio="xMinYMin meet" x="160.5" y="-1090"/>
<text text-anchor="middle" x="211" y="-974.6" font-family="Sans-Serif" font-size="13.00" fill="#2d3436">Auth</text>
</g>
<!-- 4b57134b2c3444709bfe1316e2ba944e&#45;&gt;80397fab38aa43f491513687d8981e1d -->
<g id="edge9" class="edge">
<title>4b57134b2c3444709bfe1316e2ba944e&#45;&gt;80397fab38aa43f491513687d8981e1d</title>
<path fill="none" stroke="#7b8894" d="M211,-1161.81C211,-1161.81 211,-1118.22 211,-1118.22"/>
<polygon fill="#7b8894" stroke="#7b8894" points="214.5,-1118.22 211,-1108.22 207.5,-1118.22 214.5,-1118.22"/>
</g>
<!-- 735fdaeb1c9b4e338e002fcbd09d5818 -->
<g id="node12" class="node">
<title>735fdaeb1c9b4e338e002fcbd09d5818</title>
<image xlink:href="../assets/icons/join.png" width="101px" height="101px" preserveAspectRatio="xMinYMin meet" x="160.5" y="-899"/>
<text text-anchor="middle" x="211" y="-783.6" font-family="Sans-Serif" font-size="13.00" fill="#2d3436">Join Call</text>
</g>
<!-- 80397fab38aa43f491513687d8981e1d&#45;&gt;735fdaeb1c9b4e338e002fcbd09d5818 -->
<g id="edge10" class="edge">
<title>80397fab38aa43f491513687d8981e1d&#45;&gt;735fdaeb1c9b4e338e002fcbd09d5818</title>
<path fill="none" stroke="#7b8894" d="M211,-970.81C211,-970.81 211,-927.22 211,-927.22"/>
<polygon fill="#7b8894" stroke="#7b8894" points="214.5,-927.22 211,-917.22 207.5,-927.22 214.5,-927.22"/>
</g>
<!-- 276683ef97514471bba129dcce8d2261 -->
<g id="node13" class="node">
<title>276683ef97514471bba129dcce8d2261</title>
<image xlink:href="../assets/icons/interpreter.png" width="101px" height="101px" preserveAspectRatio="xMinYMin meet" x="160.5" y="-708"/>
<text text-anchor="middle" x="211" y="-592.6" font-family="Sans-Serif" font-size="13.00" fill="#2d3436">Interpreter Joins</text>
</g>
<!-- 735fdaeb1c9b4e338e002fcbd09d5818&#45;&gt;276683ef97514471bba129dcce8d2261 -->
<g id="edge11" class="edge">
<title>735fdaeb1c9b4e338e002fcbd09d5818&#45;&gt;276683ef97514471bba129dcce8d2261</title>
<path fill="none" stroke="#7b8894" d="M211,-779.81C211,-779.81 211,-736.22 211,-736.22"/>
<polygon fill="#7b8894" stroke="#7b8894" points="214.5,-736.22 211,-726.22 207.5,-736.22 214.5,-736.22"/>
</g>
<!-- d605231de77e42e9862d11b88a95e0ca -->
<g id="node14" class="node">
<title>d605231de77e42e9862d11b88a95e0ca</title>
<image xlink:href="../assets/icons/conference.png" width="101px" height="101px" preserveAspectRatio="xMinYMin meet" x="160.5" y="-517"/>
<text text-anchor="middle" x="211" y="-401.6" font-family="Sans-Serif" font-size="13.00" fill="#2d3436">Conference</text>
</g>
<!-- 276683ef97514471bba129dcce8d2261&#45;&gt;d605231de77e42e9862d11b88a95e0ca -->
<g id="edge12" class="edge">
<title>276683ef97514471bba129dcce8d2261&#45;&gt;d605231de77e42e9862d11b88a95e0ca</title>
<path fill="none" stroke="#7b8894" d="M211,-588.81C211,-588.81 211,-545.22 211,-545.22"/>
<polygon fill="#7b8894" stroke="#7b8894" points="214.5,-545.22 211,-535.22 207.5,-545.22 214.5,-545.22"/>
</g>
<!-- b33dabd5063545d5b23c81e1fbc22cc5 -->
<g id="node15" class="node">
<title>b33dabd5063545d5b23c81e1fbc22cc5</title>
<image xlink:href="../assets/icons/doctor.png" width="101px" height="101px" preserveAspectRatio="xMinYMin meet" x="16.5" y="-1663"/>
<text text-anchor="middle" x="67" y="-1547.6" font-family="Sans-Serif" font-size="13.00" fill="#2d3436">Doctor</text>
</g>
<!-- c59864064f9d4b1f8a07569ce1ba80d1 -->
<g id="node16" class="node">
<title>c59864064f9d4b1f8a07569ce1ba80d1</title>
<image xlink:href="../assets/icons/teams.png" width="101px" height="101px" preserveAspectRatio="xMinYMin meet" x="16.5" y="-1472"/>
<text text-anchor="middle" x="67" y="-1356.6" font-family="Sans-Serif" font-size="13.00" fill="#2d3436">Microsoft Teams</text>
</g>
<!-- b33dabd5063545d5b23c81e1fbc22cc5&#45;&gt;c59864064f9d4b1f8a07569ce1ba80d1 -->
<g id="edge13" class="edge">
<title>b33dabd5063545d5b23c81e1fbc22cc5&#45;&gt;c59864064f9d4b1f8a07569ce1ba80d1</title>
<path fill="none" stroke="#7b8894" d="M67,-1543.81C67,-1543.81 67,-1500.22 67,-1500.22"/>
<polygon fill="#7b8894" stroke="#7b8894" points="70.5,-1500.22 67,-1490.22 63.5,-1500.22 70.5,-1500.22"/>
</g>
<!-- 249c8117696e4e54b46fe7b665b77a76 -->
<g id="node17" class="node">
<title>249c8117696e4e54b46fe7b665b77a76</title>
<image xlink:href="../assets/icons/teams_extension.png" width="101px" height="101px" preserveAspectRatio="xMinYMin meet" x="16.5" y="-1281"/>
<text text-anchor="middle" x="67" y="-1165.6" font-family="Sans-Serif" font-size="13.00" fill="#2d3436">Tab Extension</text>
</g>
<!-- c59864064f9d4b1f8a07569ce1ba80d1&#45;&gt;249c8117696e4e54b46fe7b665b77a76 -->
<g id="edge14" class="edge">
<title>c59864064f9d4b1f8a07569ce1ba80d1&#45;&gt;249c8117696e4e54b46fe7b665b77a76</title>
<path fill="none" stroke="#7b8894" d="M67,-1352.81C67,-1352.81 67,-1309.22 67,-1309.22"/>
<polygon fill="#7b8894" stroke="#7b8894" points="70.5,-1309.22 67,-1299.22 63.5,-1309.22 70.5,-1309.22"/>
</g>
<!-- c2d796f8ac3d4a87be80d467d8cdb1ff -->
<g id="node18" class="node">
<title>c2d796f8ac3d4a87be80d467d8cdb1ff</title>
<image xlink:href="../assets/icons/authentication.png" width="101px" height="101px" preserveAspectRatio="xMinYMin meet" x="16.5" y="-1090"/>
<text text-anchor="middle" x="67" y="-974.6" font-family="Sans-Serif" font-size="13.00" fill="#2d3436">Auth</text>
</g>
<!-- 249c8117696e4e54b46fe7b665b77a76&#45;&gt;c2d796f8ac3d4a87be80d467d8cdb1ff -->
<g id="edge15" class="edge">
<title>249c8117696e4e54b46fe7b665b77a76&#45;&gt;c2d796f8ac3d4a87be80d467d8cdb1ff</title>
<path fill="none" stroke="#7b8894" d="M67,-1161.81C67,-1161.81 67,-1118.22 67,-1118.22"/>
<polygon fill="#7b8894" stroke="#7b8894" points="70.5,-1118.22 67,-1108.22 63.5,-1118.22 70.5,-1118.22"/>
</g>
<!-- a7c84c6e87c0416f82f0987faa621361 -->
<g id="node19" class="node">
<title>a7c84c6e87c0416f82f0987faa621361</title>
<image xlink:href="../assets/icons/patient.png" width="101px" height="101px" preserveAspectRatio="xMinYMin meet" x="16.5" y="-899"/>
<text text-anchor="middle" x="67" y="-783.6" font-family="Sans-Serif" font-size="13.00" fill="#2d3436">Patient Joins</text>
</g>
<!-- c2d796f8ac3d4a87be80d467d8cdb1ff&#45;&gt;a7c84c6e87c0416f82f0987faa621361 -->
<g id="edge16" class="edge">
<title>c2d796f8ac3d4a87be80d467d8cdb1ff&#45;&gt;a7c84c6e87c0416f82f0987faa621361</title>
<path fill="none" stroke="#7b8894" d="M67,-970.81C67,-970.81 67,-927.22 67,-927.22"/>
<polygon fill="#7b8894" stroke="#7b8894" points="70.5,-927.22 67,-917.22 63.5,-927.22 70.5,-927.22"/>
</g>
<!-- 97de8d20608e4db49501f8ac72e8bf0d -->
<g id="node20" class="node">
<title>97de8d20608e4db49501f8ac72e8bf0d</title>
<image xlink:href="../assets/icons/request.png" width="101px" height="101px" preserveAspectRatio="xMinYMin meet" x="16.5" y="-708"/>
<text text-anchor="middle" x="67" y="-592.6" font-family="Sans-Serif" font-size="13.00" fill="#2d3436">Interpreter Request</text>
</g>
<!-- a7c84c6e87c0416f82f0987faa621361&#45;&gt;97de8d20608e4db49501f8ac72e8bf0d -->
<g id="edge17" class="edge">
<title>a7c84c6e87c0416f82f0987faa621361&#45;&gt;97de8d20608e4db49501f8ac72e8bf0d</title>
<path fill="none" stroke="#7b8894" d="M67,-779.81C67,-779.81 67,-736.22 67,-736.22"/>
<polygon fill="#7b8894" stroke="#7b8894" points="70.5,-736.22 67,-726.22 63.5,-736.22 70.5,-736.22"/>
</g>
<!-- 57b9afafb3f849048788476ac9a19e15 -->
<g id="node21" class="node">
<title>57b9afafb3f849048788476ac9a19e15</title>
<image xlink:href="../assets/icons/golang.png" width="101px" height="101px" preserveAspectRatio="xMinYMin meet" x="16.5" y="-517"/>
<text text-anchor="middle" x="67" y="-401.6" font-family="Sans-Serif" font-size="13.00" fill="#2d3436">RTC Bridge</text>
</g>
<!-- 97de8d20608e4db49501f8ac72e8bf0d&#45;&gt;57b9afafb3f849048788476ac9a19e15 -->
<g id="edge18" class="edge">
<title>97de8d20608e4db49501f8ac72e8bf0d&#45;&gt;57b9afafb3f849048788476ac9a19e15</title>
<path fill="none" stroke="#7b8894" d="M67,-588.81C67,-588.81 67,-545.22 67,-545.22"/>
<polygon fill="#7b8894" stroke="#7b8894" points="70.5,-545.22 67,-535.22 63.5,-545.22 70.5,-545.22"/>
</g>
<!-- 0461cd6f09a74c5d8716289624ca0f30 -->
<g id="node22" class="node">
<title>0461cd6f09a74c5d8716289624ca0f30</title>
<image xlink:href="../assets/icons/interpreter.png" width="101px" height="101px" preserveAspectRatio="xMinYMin meet" x="16.5" y="-326"/>
<text text-anchor="middle" x="67" y="-210.6" font-family="Sans-Serif" font-size="13.00" fill="#2d3436">Interpreter Joins</text>
</g>
<!-- 57b9afafb3f849048788476ac9a19e15&#45;&gt;0461cd6f09a74c5d8716289624ca0f30 -->
<g id="edge19" class="edge">
<title>57b9afafb3f849048788476ac9a19e15&#45;&gt;0461cd6f09a74c5d8716289624ca0f30</title>
<path fill="none" stroke="#7b8894" d="M67,-397.81C67,-397.81 67,-354.22 67,-354.22"/>
<polygon fill="#7b8894" stroke="#7b8894" points="70.5,-354.22 67,-344.22 63.5,-354.22 70.5,-354.22"/>
</g>
<!-- c5b4fe38076143148e937acab911fa25 -->
<g id="node23" class="node">
<title>c5b4fe38076143148e937acab911fa25</title>
<image xlink:href="../assets/icons/conference.png" width="101px" height="101px" preserveAspectRatio="xMinYMin meet" x="16.5" y="-135"/>
<text text-anchor="middle" x="67" y="-19.6" font-family="Sans-Serif" font-size="13.00" fill="#2d3436">Conference</text>
</g>
<!-- 0461cd6f09a74c5d8716289624ca0f30&#45;&gt;c5b4fe38076143148e937acab911fa25 -->
<g id="edge20" class="edge">
<title>0461cd6f09a74c5d8716289624ca0f30&#45;&gt;c5b4fe38076143148e937acab911fa25</title>
<path fill="none" stroke="#7b8894" d="M67,-206.81C67,-206.81 67,-163.22 67,-163.22"/>
<polygon fill="#7b8894" stroke="#7b8894" points="70.5,-163.22 67,-153.22 63.5,-163.22 70.5,-163.22"/>
</g>
</g>
</svg>
