<?xml version="1.0" encoding="UTF-8" standalone="no"?>
<!DOCTYPE svg PUBLIC "-//W3C//DTD SVG 1.1//EN"
 "http://www.w3.org/Graphics/SVG/1.1/DTD/svg11.dtd">
<!-- Generated by graphviz version 2.43.0 (0)
 -->
<!-- Title: %3 Pages: 1 -->
<svg width="710pt" height="1985pt"
 viewBox="0.00 0.00 710.00 1985.00" xmlns="http://www.w3.org/2000/svg" xmlns:xlink="http://www.w3.org/1999/xlink">
<g id="graph0" class="graph" transform="scale(1 1) rotate(0) translate(144 1841)">
<title>%3</title>
<polygon fill="white" stroke="transparent" points="-144,144 -144,-1841 566,-1841 566,144 -144,144"/>
<g id="clust1" class="cluster">
<title>cluster_</title>
<path fill="#e5f5fd" stroke="#aeb6be" d="M20,-8C20,-8 402,-8 402,-8 408,-8 414,-14 414,-20 414,-20 414,-1677 414,-1677 414,-1683 408,-1689 402,-1689 402,-1689 20,-1689 20,-1689 14,-1689 8,-1683 8,-1677 8,-1677 8,-20 8,-20 8,-14 14,-8 20,-8"/>
</g>
<!-- 0ba54130070d4a8984f2b6ee7bc8b146 -->
<g id="node1" class="node">
<title>0ba54130070d4a8984f2b6ee7bc8b146</title>
<image xlink:href="../assets/icons/interpreter.png" width="101px" height="101px" preserveAspectRatio="xMinYMin meet" x="304.5" y="-1663"/>
<text text-anchor="middle" x="355" y="-1547.6" font-family="Sans-Serif" font-size="13.00" fill="#2d3436">Interpreter</text>
</g>
<!-- 83e6d7cf801f40168a2eb84c1dc6d87e -->
<g id="node2" class="node">
<title>83e6d7cf801f40168a2eb84c1dc6d87e</title>
<image xlink:href="../assets/icons/teams.png" width="101px" height="101px" preserveAspectRatio="xMinYMin meet" x="304.5" y="-1472"/>
<text text-anchor="middle" x="355" y="-1356.6" font-family="Sans-Serif" font-size="13.00" fill="#2d3436">Microsoft Teams</text>
</g>
<!-- 0ba54130070d4a8984f2b6ee7bc8b146&#45;&gt;83e6d7cf801f40168a2eb84c1dc6d87e -->
<g id="edge1" class="edge">
<title>0ba54130070d4a8984f2b6ee7bc8b146&#45;&gt;83e6d7cf801f40168a2eb84c1dc6d87e</title>
<path fill="none" stroke="#7b8894" d="M355,-1543.81C355,-1543.81 355,-1500.22 355,-1500.22"/>
<polygon fill="#7b8894" stroke="#7b8894" points="358.5,-1500.22 355,-1490.22 351.5,-1500.22 358.5,-1500.22"/>
</g>
<!-- 5e4350287dfb419e8690a242ab95c6f3 -->
<g id="node3" class="node">
<title>5e4350287dfb419e8690a242ab95c6f3</title>
<image xlink:href="../assets/icons/teams_extension.png" width="101px" height="101px" preserveAspectRatio="xMinYMin meet" x="304.5" y="-1281"/>
<text text-anchor="middle" x="355" y="-1165.6" font-family="Sans-Serif" font-size="13.00" fill="#2d3436">Tab Extension</text>
</g>
<!-- 83e6d7cf801f40168a2eb84c1dc6d87e&#45;&gt;5e4350287dfb419e8690a242ab95c6f3 -->
<g id="edge2" class="edge">
<title>83e6d7cf801f40168a2eb84c1dc6d87e&#45;&gt;5e4350287dfb419e8690a242ab95c6f3</title>
<path fill="none" stroke="#7b8894" d="M355,-1352.81C355,-1352.81 355,-1309.22 355,-1309.22"/>
<polygon fill="#7b8894" stroke="#7b8894" points="358.5,-1309.22 355,-1299.22 351.5,-1309.22 358.5,-1309.22"/>
</g>
<!-- 34886e78116f48dc8e8131e939bec19f -->
<g id="node4" class="node">
<title>34886e78116f48dc8e8131e939bec19f</title>
<image xlink:href="../assets/icons/authentication.png" width="101px" height="101px" preserveAspectRatio="xMinYMin meet" x="304.5" y="-1090"/>
<text text-anchor="middle" x="355" y="-974.6" font-family="Sans-Serif" font-size="13.00" fill="#2d3436">Auth</text>
</g>
<!-- 5e4350287dfb419e8690a242ab95c6f3&#45;&gt;34886e78116f48dc8e8131e939bec19f -->
<g id="edge3" class="edge">
<title>5e4350287dfb419e8690a242ab95c6f3&#45;&gt;34886e78116f48dc8e8131e939bec19f</title>
<path fill="none" stroke="#7b8894" d="M355,-1161.81C355,-1161.81 355,-1118.22 355,-1118.22"/>
<polygon fill="#7b8894" stroke="#7b8894" points="358.5,-1118.22 355,-1108.22 351.5,-1118.22 358.5,-1118.22"/>
</g>
<!-- c0fd778a868e468b87e37ec80cc00f05 -->
<g id="node5" class="node">
<title>c0fd778a868e468b87e37ec80cc00f05</title>
<image xlink:href="../assets/icons/waiting.png" width="101px" height="101px" preserveAspectRatio="xMinYMin meet" x="304.5" y="-899"/>
<text text-anchor="middle" x="355" y="-783.6" font-family="Sans-Serif" font-size="13.00" fill="#2d3436">Waiting</text>
</g>
<!-- 34886e78116f48dc8e8131e939bec19f&#45;&gt;c0fd778a868e468b87e37ec80cc00f05 -->
<g id="edge4" class="edge">
<title>34886e78116f48dc8e8131e939bec19f&#45;&gt;c0fd778a868e468b87e37ec80cc00f05</title>
<path fill="none" stroke="#7b8894" d="M355,-970.81C355,-970.81 355,-927.22 355,-927.22"/>
<polygon fill="#7b8894" stroke="#7b8894" points="358.5,-927.22 355,-917.22 351.5,-927.22 358.5,-927.22"/>
</g>
<!-- 31bae48fb4ca4c448d3e034fab131400 -->
<g id="node6" class="node">
<title>31bae48fb4ca4c448d3e034fab131400</title>
<image xlink:href="../assets/icons/join.png" width="101px" height="101px" preserveAspectRatio="xMinYMin meet" x="304.5" y="-708"/>
<text text-anchor="middle" x="355" y="-592.6" font-family="Sans-Serif" font-size="13.00" fill="#2d3436">Join Call</text>
</g>
<!-- c0fd778a868e468b87e37ec80cc00f05&#45;&gt;31bae48fb4ca4c448d3e034fab131400 -->
<g id="edge5" class="edge">
<title>c0fd778a868e468b87e37ec80cc00f05&#45;&gt;31bae48fb4ca4c448d3e034fab131400</title>
<path fill="none" stroke="#7b8894" d="M355,-779.81C355,-779.81 355,-736.22 355,-736.22"/>
<polygon fill="#7b8894" stroke="#7b8894" points="358.5,-736.22 355,-726.22 351.5,-736.22 358.5,-736.22"/>
</g>
<!-- 07c2b467df0b4f3c8873787f174357a5 -->
<g id="node7" class="node">
<title>07c2b467df0b4f3c8873787f174357a5</title>
<image xlink:href="../assets/icons/conference.png" width="101px" height="101px" preserveAspectRatio="xMinYMin meet" x="304.5" y="-517"/>
<text text-anchor="middle" x="355" y="-401.6" font-family="Sans-Serif" font-size="13.00" fill="#2d3436">Conference</text>
</g>
<!-- 31bae48fb4ca4c448d3e034fab131400&#45;&gt;07c2b467df0b4f3c8873787f174357a5 -->
<g id="edge6" class="edge">
<title>31bae48fb4ca4c448d3e034fab131400&#45;&gt;07c2b467df0b4f3c8873787f174357a5</title>
<path fill="none" stroke="#7b8894" d="M355,-588.81C355,-588.81 355,-545.22 355,-545.22"/>
<polygon fill="#7b8894" stroke="#7b8894" points="358.5,-545.22 355,-535.22 351.5,-545.22 358.5,-545.22"/>
</g>
<!-- 0735a29db77d418e9c88ca000e8607f5 -->
<g id="node8" class="node">
<title>0735a29db77d418e9c88ca000e8607f5</title>
<image xlink:href="../assets/icons/patient.png" width="101px" height="101px" preserveAspectRatio="xMinYMin meet" x="160.5" y="-1663"/>
<text text-anchor="middle" x="211" y="-1547.6" font-family="Sans-Serif" font-size="13.00" fill="#2d3436">Patient</text>
</g>
<!-- bd7af690c2d14844855a8545ded34c77 -->
<g id="node9" class="node">
<title>bd7af690c2d14844855a8545ded34c77</title>
<image xlink:href="../assets/icons/teams.png" width="101px" height="101px" preserveAspectRatio="xMinYMin meet" x="160.5" y="-1472"/>
<text text-anchor="middle" x="211" y="-1356.6" font-family="Sans-Serif" font-size="13.00" fill="#2d3436">Microsoft Teams</text>
</g>
<!-- 0735a29db77d418e9c88ca000e8607f5&#45;&gt;bd7af690c2d14844855a8545ded34c77 -->
<g id="edge7" class="edge">
<title>0735a29db77d418e9c88ca000e8607f5&#45;&gt;bd7af690c2d14844855a8545ded34c77</title>
<path fill="none" stroke="#7b8894" d="M211,-1543.81C211,-1543.81 211,-1500.22 211,-1500.22"/>
<polygon fill="#7b8894" stroke="#7b8894" points="214.5,-1500.22 211,-1490.22 207.5,-1500.22 214.5,-1500.22"/>
</g>
<!-- 7d19c41f64064696a0288031e93703f0 -->
<g id="node10" class="node">
<title>7d19c41f64064696a0288031e93703f0</title>
<image xlink:href="../assets/icons/teams_extension.png" width="101px" height="101px" preserveAspectRatio="xMinYMin meet" x="160.5" y="-1281"/>
<text text-anchor="middle" x="211" y="-1165.6" font-family="Sans-Serif" font-size="13.00" fill="#2d3436">Tab Extension</text>
</g>
<!-- bd7af690c2d14844855a8545ded34c77&#45;&gt;7d19c41f64064696a0288031e93703f0 -->
<g id="edge8" class="edge">
<title>bd7af690c2d14844855a8545ded34c77&#45;&gt;7d19c41f64064696a0288031e93703f0</title>
<path fill="none" stroke="#7b8894" d="M211,-1352.81C211,-1352.81 211,-1309.22 211,-1309.22"/>
<polygon fill="#7b8894" stroke="#7b8894" points="214.5,-1309.22 211,-1299.22 207.5,-1309.22 214.5,-1309.22"/>
</g>
<!-- cbf361cd4c8a4a44bbeb30ef124726e8 -->
<g id="node11" class="node">
<title>cbf361cd4c8a4a44bbeb30ef124726e8</title>
<image xlink:href="../assets/icons/authentication.png" width="101px" height="101px" preserveAspectRatio="xMinYMin meet" x="160.5" y="-1090"/>
<text text-anchor="middle" x="211" y="-974.6" font-family="Sans-Serif" font-size="13.00" fill="#2d3436">Auth</text>
</g>
<!-- 7d19c41f64064696a0288031e93703f0&#45;&gt;cbf361cd4c8a4a44bbeb30ef124726e8 -->
<g id="edge9" class="edge">
<title>7d19c41f64064696a0288031e93703f0&#45;&gt;cbf361cd4c8a4a44bbeb30ef124726e8</title>
<path fill="none" stroke="#7b8894" d="M211,-1161.81C211,-1161.81 211,-1118.22 211,-1118.22"/>
<polygon fill="#7b8894" stroke="#7b8894" points="214.5,-1118.22 211,-1108.22 207.5,-1118.22 214.5,-1118.22"/>
</g>
<!-- 596ac423e01c4702abfb3a27c45604b9 -->
<g id="node12" class="node">
<title>596ac423e01c4702abfb3a27c45604b9</title>
<image xlink:href="../assets/icons/join.png" width="101px" height="101px" preserveAspectRatio="xMinYMin meet" x="160.5" y="-899"/>
<text text-anchor="middle" x="211" y="-783.6" font-family="Sans-Serif" font-size="13.00" fill="#2d3436">Join Call</text>
</g>
<!-- cbf361cd4c8a4a44bbeb30ef124726e8&#45;&gt;596ac423e01c4702abfb3a27c45604b9 -->
<g id="edge10" class="edge">
<title>cbf361cd4c8a4a44bbeb30ef124726e8&#45;&gt;596ac423e01c4702abfb3a27c45604b9</title>
<path fill="none" stroke="#7b8894" d="M211,-970.81C211,-970.81 211,-927.22 211,-927.22"/>
<polygon fill="#7b8894" stroke="#7b8894" points="214.5,-927.22 211,-917.22 207.5,-927.22 214.5,-927.22"/>
</g>
<!-- c9e06f69781648b985904afe2a79e39e -->
<g id="node13" class="node">
<title>c9e06f69781648b985904afe2a79e39e</title>
<image xlink:href="../assets/icons/interpreter.png" width="101px" height="101px" preserveAspectRatio="xMinYMin meet" x="160.5" y="-708"/>
<text text-anchor="middle" x="211" y="-592.6" font-family="Sans-Serif" font-size="13.00" fill="#2d3436">Interpreter Joins</text>
</g>
<!-- 596ac423e01c4702abfb3a27c45604b9&#45;&gt;c9e06f69781648b985904afe2a79e39e -->
<g id="edge11" class="edge">
<title>596ac423e01c4702abfb3a27c45604b9&#45;&gt;c9e06f69781648b985904afe2a79e39e</title>
<path fill="none" stroke="#7b8894" d="M211,-779.81C211,-779.81 211,-736.22 211,-736.22"/>
<polygon fill="#7b8894" stroke="#7b8894" points="214.5,-736.22 211,-726.22 207.5,-736.22 214.5,-736.22"/>
</g>
<!-- 3d9deb3e67494a318c117acfa2441921 -->
<g id="node14" class="node">
<title>3d9deb3e67494a318c117acfa2441921</title>
<image xlink:href="../assets/icons/conference.png" width="101px" height="101px" preserveAspectRatio="xMinYMin meet" x="160.5" y="-517"/>
<text text-anchor="middle" x="211" y="-401.6" font-family="Sans-Serif" font-size="13.00" fill="#2d3436">Conference</text>
</g>
<!-- c9e06f69781648b985904afe2a79e39e&#45;&gt;3d9deb3e67494a318c117acfa2441921 -->
<g id="edge12" class="edge">
<title>c9e06f69781648b985904afe2a79e39e&#45;&gt;3d9deb3e67494a318c117acfa2441921</title>
<path fill="none" stroke="#7b8894" d="M211,-588.81C211,-588.81 211,-545.22 211,-545.22"/>
<polygon fill="#7b8894" stroke="#7b8894" points="214.5,-545.22 211,-535.22 207.5,-545.22 214.5,-545.22"/>
</g>
<!-- fff3fcc8b6c3407c98e40a4651cbe0c1 -->
<g id="node15" class="node">
<title>fff3fcc8b6c3407c98e40a4651cbe0c1</title>
<image xlink:href="../assets/icons/doctor.png" width="101px" height="101px" preserveAspectRatio="xMinYMin meet" x="16.5" y="-1663"/>
<text text-anchor="middle" x="67" y="-1547.6" font-family="Sans-Serif" font-size="13.00" fill="#2d3436">Doctor</text>
</g>
<!-- 65d50a08cb5741cb9eaad498cf644723 -->
<g id="node16" class="node">
<title>65d50a08cb5741cb9eaad498cf644723</title>
<image xlink:href="../assets/icons/teams.png" width="101px" height="101px" preserveAspectRatio="xMinYMin meet" x="16.5" y="-1472"/>
<text text-anchor="middle" x="67" y="-1356.6" font-family="Sans-Serif" font-size="13.00" fill="#2d3436">Microsoft Teams</text>
</g>
<!-- fff3fcc8b6c3407c98e40a4651cbe0c1&#45;&gt;65d50a08cb5741cb9eaad498cf644723 -->
<g id="edge13" class="edge">
<title>fff3fcc8b6c3407c98e40a4651cbe0c1&#45;&gt;65d50a08cb5741cb9eaad498cf644723</title>
<path fill="none" stroke="#7b8894" d="M67,-1543.81C67,-1543.81 67,-1500.22 67,-1500.22"/>
<polygon fill="#7b8894" stroke="#7b8894" points="70.5,-1500.22 67,-1490.22 63.5,-1500.22 70.5,-1500.22"/>
</g>
<!-- 890cab50f06a4dd3afd45b7689af080c -->
<g id="node17" class="node">
<title>890cab50f06a4dd3afd45b7689af080c</title>
<image xlink:href="../assets/icons/teams_extension.png" width="101px" height="101px" preserveAspectRatio="xMinYMin meet" x="16.5" y="-1281"/>
<text text-anchor="middle" x="67" y="-1165.6" font-family="Sans-Serif" font-size="13.00" fill="#2d3436">Tab Extension</text>
</g>
<!-- 65d50a08cb5741cb9eaad498cf644723&#45;&gt;890cab50f06a4dd3afd45b7689af080c -->
<g id="edge14" class="edge">
<title>65d50a08cb5741cb9eaad498cf644723&#45;&gt;890cab50f06a4dd3afd45b7689af080c</title>
<path fill="none" stroke="#7b8894" d="M67,-1352.81C67,-1352.81 67,-1309.22 67,-1309.22"/>
<polygon fill="#7b8894" stroke="#7b8894" points="70.5,-1309.22 67,-1299.22 63.5,-1309.22 70.5,-1309.22"/>
</g>
<!-- d8f97af20dc14eccb2377a34de2d8cd1 -->
<g id="node18" class="node">
<title>d8f97af20dc14eccb2377a34de2d8cd1</title>
<image xlink:href="../assets/icons/authentication.png" width="101px" height="101px" preserveAspectRatio="xMinYMin meet" x="16.5" y="-1090"/>
<text text-anchor="middle" x="67" y="-974.6" font-family="Sans-Serif" font-size="13.00" fill="#2d3436">Auth</text>
</g>
<!-- 890cab50f06a4dd3afd45b7689af080c&#45;&gt;d8f97af20dc14eccb2377a34de2d8cd1 -->
<g id="edge15" class="edge">
<title>890cab50f06a4dd3afd45b7689af080c&#45;&gt;d8f97af20dc14eccb2377a34de2d8cd1</title>
<path fill="none" stroke="#7b8894" d="M67,-1161.81C67,-1161.81 67,-1118.22 67,-1118.22"/>
<polygon fill="#7b8894" stroke="#7b8894" points="70.5,-1118.22 67,-1108.22 63.5,-1118.22 70.5,-1118.22"/>
</g>
<!-- a8ad5105181e4ef894a976bed30ee738 -->
<g id="node19" class="node">
<title>a8ad5105181e4ef894a976bed30ee738</title>
<image xlink:href="../assets/icons/patient.png" width="101px" height="101px" preserveAspectRatio="xMinYMin meet" x="16.5" y="-899"/>
<text text-anchor="middle" x="67" y="-783.6" font-family="Sans-Serif" font-size="13.00" fill="#2d3436">Patient Joins</text>
</g>
<!-- d8f97af20dc14eccb2377a34de2d8cd1&#45;&gt;a8ad5105181e4ef894a976bed30ee738 -->
<g id="edge16" class="edge">
<title>d8f97af20dc14eccb2377a34de2d8cd1&#45;&gt;a8ad5105181e4ef894a976bed30ee738</title>
<path fill="none" stroke="#7b8894" d="M67,-970.81C67,-970.81 67,-927.22 67,-927.22"/>
<polygon fill="#7b8894" stroke="#7b8894" points="70.5,-927.22 67,-917.22 63.5,-927.22 70.5,-927.22"/>
</g>
<!-- b5bc0b44c0b74529b34807e3c639d0d1 -->
<g id="node20" class="node">
<title>b5bc0b44c0b74529b34807e3c639d0d1</title>
<image xlink:href="../assets/icons/request.png" width="101px" height="101px" preserveAspectRatio="xMinYMin meet" x="16.5" y="-708"/>
<text text-anchor="middle" x="67" y="-592.6" font-family="Sans-Serif" font-size="13.00" fill="#2d3436">Interpreter Request</text>
</g>
<!-- a8ad5105181e4ef894a976bed30ee738&#45;&gt;b5bc0b44c0b74529b34807e3c639d0d1 -->
<g id="edge17" class="edge">
<title>a8ad5105181e4ef894a976bed30ee738&#45;&gt;b5bc0b44c0b74529b34807e3c639d0d1</title>
<path fill="none" stroke="#7b8894" d="M67,-779.81C67,-779.81 67,-736.22 67,-736.22"/>
<polygon fill="#7b8894" stroke="#7b8894" points="70.5,-736.22 67,-726.22 63.5,-736.22 70.5,-736.22"/>
</g>
<!-- b6b126031c0948cdb038f1c7bd9fec8f -->
<g id="node21" class="node">
<title>b6b126031c0948cdb038f1c7bd9fec8f</title>
<image xlink:href="../assets/icons/golang.png" width="101px" height="101px" preserveAspectRatio="xMinYMin meet" x="16.5" y="-517"/>
<text text-anchor="middle" x="67" y="-401.6" font-family="Sans-Serif" font-size="13.00" fill="#2d3436">RTC Bridge</text>
</g>
<!-- b5bc0b44c0b74529b34807e3c639d0d1&#45;&gt;b6b126031c0948cdb038f1c7bd9fec8f -->
<g id="edge18" class="edge">
<title>b5bc0b44c0b74529b34807e3c639d0d1&#45;&gt;b6b126031c0948cdb038f1c7bd9fec8f</title>
<path fill="none" stroke="#7b8894" d="M67,-588.81C67,-588.81 67,-545.22 67,-545.22"/>
<polygon fill="#7b8894" stroke="#7b8894" points="70.5,-545.22 67,-535.22 63.5,-545.22 70.5,-545.22"/>
</g>
<!-- 24447d1d12ea48c08d4460b63ea2bf38 -->
<g id="node22" class="node">
<title>24447d1d12ea48c08d4460b63ea2bf38</title>
<image xlink:href="../assets/icons/interpreter.png" width="101px" height="101px" preserveAspectRatio="xMinYMin meet" x="16.5" y="-326"/>
<text text-anchor="middle" x="67" y="-210.6" font-family="Sans-Serif" font-size="13.00" fill="#2d3436">Interpreter Joins</text>
</g>
<!-- b6b126031c0948cdb038f1c7bd9fec8f&#45;&gt;24447d1d12ea48c08d4460b63ea2bf38 -->
<g id="edge19" class="edge">
<title>b6b126031c0948cdb038f1c7bd9fec8f&#45;&gt;24447d1d12ea48c08d4460b63ea2bf38</title>
<path fill="none" stroke="#7b8894" d="M67,-397.81C67,-397.81 67,-354.22 67,-354.22"/>
<polygon fill="#7b8894" stroke="#7b8894" points="70.5,-354.22 67,-344.22 63.5,-354.22 70.5,-354.22"/>
</g>
<!-- 326015791ae340a68c97b622003e81f9 -->
<g id="node23" class="node">
<title>326015791ae340a68c97b622003e81f9</title>
<image xlink:href="../assets/icons/conference.png" width="101px" height="101px" preserveAspectRatio="xMinYMin meet" x="16.5" y="-135"/>
<text text-anchor="middle" x="67" y="-19.6" font-family="Sans-Serif" font-size="13.00" fill="#2d3436">Conference</text>
</g>
<!-- 24447d1d12ea48c08d4460b63ea2bf38&#45;&gt;326015791ae340a68c97b622003e81f9 -->
<g id="edge20" class="edge">
<title>24447d1d12ea48c08d4460b63ea2bf38&#45;&gt;326015791ae340a68c97b622003e81f9</title>
<path fill="none" stroke="#7b8894" d="M67,-206.81C67,-206.81 67,-163.22 67,-163.22"/>
<polygon fill="#7b8894" stroke="#7b8894" points="70.5,-163.22 67,-153.22 63.5,-163.22 70.5,-163.22"/>
</g>
</g>
</svg>
